<?xml version="1.0" encoding="utf-8"?>
<!-- Generator: Adobe Illustrator 19.1.0, SVG Export Plug-In . SVG Version: 6.00 Build 0)  -->
<svg version="1.1" id="Lag_1" xmlns="http://www.w3.org/2000/svg" xmlns:xlink="http://www.w3.org/1999/xlink" x="0px" y="0px"
	 viewBox="0 0 100 100" style="enable-background:new 0 0 100 100;" xml:space="preserve">
<g>
	<path d="M49.5,4.7L10,27.6v45.8l39.5,22.9L89,73.5V27.6L49.5,4.7z M86,71.9L49.5,93.3L13,71.9V29.2L49.5,7.8L86,29.2V71.9z"/>
	<path d="M17,69.5l32.8,19l34-19.7L53,50.5l30.9-18.2l-34-19.7L17,31.6V69.5z M20,60l4.3-6.6l16.3,26.5L20,68V60z M48.6,84.5l-3-1.7
		L26,50.9l21-33.4l1.7-1 M78.5,68.7L51,84.7V52.6L78.5,68.7z M51,48.5V16.4l27.4,16L51,48.5z M41.7,20.5L20,55V33.1L41.7,20.5z"/>
</g>
</svg>
